<?xml version="1.0" encoding="utf-8"?>
<!-- Generator: Adobe Illustrator 25.2.0, SVG Export Plug-In . SVG Version: 6.00 Build 0)  -->
<svg version="1.1" id="Layer_1" xmlns="http://www.w3.org/2000/svg" xmlns:xlink="http://www.w3.org/1999/xlink" x="0px" y="0px"
	 viewBox="0 0 1080 1080" style="enable-background:new 0 0 1080 1080;" xml:space="preserve">
<style type="text/css">
	.st0{fill:#FFFFFF;}
	.st1{fill:#157FFF;}
	.st2{fill:#00FF91;}
	.st3{fill:#222222;}
	.st4{fill:url(#SVGID_1_);}
	.st5{fill:url(#SVGID_2_);}
</style>

<g>
	<g>
		<path class="st1" d="M738.45,370.62c-24.51-23.96-54.88-35.95-91.1-35.95H466.8c-2.12,0-3.84,1.72-3.84,3.84v244.86
			c0,2.12,1.72,3.84,3.84,3.84h74.09v-0.09h106.47c35.85,0,66.13-11.8,90.83-35.4c24.7-23.6,37.05-53.87,37.05-90.83
			C775.23,424.68,762.96,394.59,738.45,370.62z M677.21,502.89H551.13c-2.12,0-3.84-1.72-3.84-3.84V422.4
			c0-2.12,1.72-3.84,3.84-3.84h126.09c2.12,0,3.84,1.72,3.84,3.84v76.65C681.05,501.17,679.33,502.89,677.21,502.89z"/>
		<path class="st2" d="M462.96,502.81H308.61c-2.12,0-3.84,1.72-3.84,3.84v76.65c0,2.12,1.72,3.84,3.84,3.84h150.5
			c2.12,0,3.84,1.72,3.84,3.84v150.5c0,2.12,1.72,3.84,3.84,3.84h76.65c2.12,0,3.84-1.72,3.84-3.84V587.14v-80.49
			c0-2.12-1.72-3.84-3.84-3.84H462.96z"/>
		<path class="st0" d="M681.05,420.01v81.43c0,0.8-0.65,1.45-1.45,1.45H548.73c-0.8,0-1.45-0.65-1.45-1.45v-81.43
			c0-0.8,0.65-1.45,1.45-1.45H679.6C680.4,418.56,681.05,419.21,681.05,420.01z"/>
	</g>
</g>
</svg>
